<?xml version="1.0" standalone="no"?>
<svg version="1.0" xmlns="http://www.w3.org/2000/svg"
 width="820.000000pt" height="820.000000pt" viewBox="0 0 820.000000 820.000000"
 preserveAspectRatio="xMidYMid meet">

<g transform="translate(0.000000,820.000000) scale(0.100000,-0.100000)"
fill="#FFFFFF" stroke="none">
<path d="M4045 6973 c-60 -13 -95 -31 -430 -230 -375 -221 -419 -247 -465
-272 -25 -13 -56 -32 -70 -41 -20 -14 -209 -125 -375 -220 -16 -9 -124 -72
-240 -140 -115 -68 -224 -131 -240 -140 -17 -9 -87 -50 -155 -90 -69 -40 -197
-115 -285 -165 -143 -82 -163 -97 -190 -140 l-30 -48 0 -1421 0 -1422 26 -49
c32 -63 73 -94 301 -226 310 -180 656 -382 803 -469 77 -46 165 -97 195 -115
30 -17 181 -105 335 -195 586 -341 701 -408 750 -433 45 -23 59 -25 147 -22
101 3 106 5 238 82 19 11 143 83 275 160 132 77 335 195 450 263 116 67 225
131 243 141 76 45 108 63 307 179 116 68 239 139 275 160 491 280 678 396 706
438 41 61 44 107 44 715 0 511 -2 585 -16 605 -22 32 -49 27 -139 -24 -44 -25
-133 -75 -197 -111 -65 -35 -125 -71 -133 -79 -13 -13 -15 -63 -15 -321 0
-180 -5 -333 -11 -370 -14 -82 -57 -145 -135 -199 -48 -34 -278 -169 -559
-329 -22 -13 -130 -76 -240 -140 -110 -65 -220 -129 -245 -142 -25 -14 -65
-38 -90 -53 -25 -15 -148 -87 -275 -160 -126 -73 -250 -145 -275 -161 -102
-63 -156 -81 -233 -77 -81 4 -51 -11 -442 218 -236 138 -361 211 -420 245 -22
12 -92 53 -155 90 -63 38 -155 92 -205 120 -150 86 -338 197 -375 220 -19 12
-62 37 -95 55 -220 121 -282 170 -319 249 -21 46 -21 46 -21 1136 l0 1090 28
58 c17 34 47 73 75 97 53 45 100 74 937 560 88 51 220 128 292 171 73 44 135
79 137 79 1 0 63 36 136 80 73 44 134 80 135 80 2 0 32 17 66 38 108 65 160
86 224 90 81 5 122 -12 383 -165 409 -238 618 -359 1202 -696 310 -178 366
-214 406 -263 69 -83 68 -76 72 -609 3 -423 5 -482 19 -497 21 -24 55 -23 106
3 59 30 294 166 340 197 l38 25 -3 551 -3 551 -27 45 c-33 56 -50 69 -244 178
-88 49 -269 153 -404 232 -135 79 -308 180 -385 225 -77 45 -315 184 -530 310
-801 470 -826 484 -877 494 -49 11 -105 13 -143 4z"/>
<path d="M4015 5938 c-28 -11 -140 -74 -672 -385 -120 -69 -325 -188 -456
-264 -130 -76 -248 -146 -262 -155 -31 -20 -49 -75 -42 -133 7 -61 28 -79 274
-220 208 -120 423 -245 763 -444 395 -231 408 -237 496 -237 64 0 116 22 274
115 63 38 205 121 315 185 344 200 458 268 509 299 26 17 52 31 57 31 11 0 12
-1330 1 -1346 -6 -11 -198 -134 -207 -134 -2 0 -47 -27 -100 -60 -53 -33 -98
-60 -100 -60 -2 0 -53 -29 -112 -64 -518 -305 -562 -327 -633 -327 -64 0 -112
15 -195 63 -338 194 -472 272 -480 278 -5 4 -46 28 -90 52 -198 110 -342 199
-368 226 -16 16 -33 47 -38 68 -4 22 -9 222 -9 445 l0 406 -22 20 c-13 11 -70
46 -128 78 -58 32 -143 80 -190 107 -46 26 -91 48 -100 48 -9 0 -26 -10 -37
-22 -21 -23 -21 -33 -26 -618 -2 -327 -1 -642 2 -699 l6 -103 36 -32 c20 -17
97 -66 170 -108 74 -42 202 -116 284 -164 83 -48 218 -126 300 -174 163 -94
452 -262 500 -290 166 -98 287 -162 320 -171 29 -8 53 -8 89 0 79 18 124 43
736 404 47 27 99 58 115 67 129 74 338 197 375 220 25 15 65 39 90 52 213 116
273 153 298 186 l27 35 0 926 c0 750 -3 933 -13 964 -10 28 -28 47 -65 71 -89
57 -414 236 -428 236 -11 0 -156 -81 -466 -261 -18 -11 -48 -27 -65 -38 -18
-10 -127 -73 -243 -141 -290 -170 -321 -183 -410 -178 -57 4 -83 12 -133 39
-406 223 -448 255 -422 320 16 37 26 44 247 172 301 174 339 178 554 50 l45
-27 94 55 c51 30 114 66 139 81 25 15 75 44 111 65 74 42 89 58 90 94 0 34
-24 55 -160 134 -63 38 -143 85 -177 106 -34 22 -65 39 -68 39 -2 0 -29 16
-59 35 -119 76 -168 95 -242 94 -38 0 -82 -5 -99 -11z"/>
</g>
</svg>
